<?xml version="1.0" encoding="UTF-8" standalone="no"?>
<svg width="28px" height="28px" viewBox="-5 0 140 88" version="1.1" xmlns="http://www.w3.org/2000/svg" xmlns:xlink="http://www.w3.org/1999/xlink" preserveAspectRatio="xMidYMid">
	<g>
		<path d="M64.3406324,87.7128542 C46.1472854,87.7139055 27.9528871,87.7580616 9.75954004,87.6907762 C3.36321971,87.6676468 -0.0157700205,83.9385626 0.968279261,78.2277125 C1.86506776,73.0215031 5.46063244,71.7630554 10.1926899,71.7714661 C43.256115,71.8303409 76.3205914,71.8019548 109.384016,71.8019548 C112.882858,71.8019548 116.383803,71.7220534 119.879491,71.8219302 C125.225528,71.9743737 128.30699,74.9033922 128.364813,79.7185051 C128.423688,84.517848 125.375869,87.6403121 119.970957,87.6708008 C101.428567,87.774883 82.8840739,87.7107515 64.3406324,87.7128542" fill="#1FD3EF"></path>
		<path d="M64.3406324,53.8073101 C46.1472854,53.8083614 27.9528871,53.8525175 9.75954004,53.785232 C3.36321971,53.7621027 -0.0157700205,50.0330185 0.968279261,44.3221684 C1.86506776,39.1159589 5.46063244,37.8575113 10.1926899,37.865922 C43.256115,37.925848 76.3205914,37.8964107 109.384016,37.8964107 C112.882858,37.8964107 116.383803,37.8165092 119.879491,37.916386 C125.225528,38.0688296 128.30699,40.997848 128.364813,45.812961 C128.423688,50.6123039 125.375869,53.734768 119.970957,53.7652567 C101.428567,53.8693388 82.8840739,53.8052074 64.3406324,53.8073101" fill="#5D5D5D"></path>
		<path d="M64.3406324,18.0619302 C46.1472854,18.0629815 27.9528871,18.1071376 9.75954004,18.0398522 C3.36321971,18.0167228 -0.0157700205,14.2876386 0.968279261,8.5767885 C1.86506776,3.37057906 5.46063244,2.11213142 10.1926899,2.12054209 C43.256115,2.17941684 76.3205914,2.1510308 109.384016,2.1510308 C112.882858,2.1510308 116.383803,2.0721807 119.879491,2.17100616 C125.225528,2.32344969 128.30699,5.25246817 128.364813,10.0675811 C128.423688,14.866924 125.375869,17.9893881 119.970957,18.0198768 C101.428567,18.1239589 82.8840739,18.0598275 64.3406324,18.0619302" fill="#1FD3EF"></path>
	</g>
</svg>